<svg width="790" height="298" viewBox="0 0 790 298" fill="none" xmlns="http://www.w3.org/2000/svg">
<g clip-path="url(#clip0_1_2)">
<path d="M221.08 199V94.7H259.86C266.953 94.7 273.207 96.0067 278.62 98.62C284.127 101.14 288.42 104.873 291.5 109.82C294.58 114.673 296.12 120.6 296.12 127.6C296.12 134.787 294.393 140.9 290.94 145.94C287.58 150.98 283.007 154.713 277.22 157.14L301.16 199H279.6L253.98 153.22L266.3 160.5H240.12V199H221.08ZM240.12 143.7H260.14C263.593 143.7 266.58 143.047 269.1 141.74C271.62 140.34 273.58 138.427 274.98 136C276.38 133.573 277.08 130.773 277.08 127.6C277.08 124.333 276.38 121.533 274.98 119.2C273.58 116.773 271.62 114.907 269.1 113.6C266.58 112.2 263.593 111.5 260.14 111.5H240.12V143.7ZM341.18 200.68C333.34 200.68 326.48 198.907 320.6 195.36C314.72 191.813 310.147 187.007 306.88 180.94C303.614 174.873 301.98 168.153 301.98 160.78C301.98 153.127 303.614 146.36 306.88 140.48C310.24 134.507 314.767 129.793 320.46 126.34C326.247 122.887 332.687 121.16 339.78 121.16C345.754 121.16 350.98 122.14 355.46 124.1C360.034 126.06 363.907 128.767 367.08 132.22C370.254 135.673 372.68 139.64 374.36 144.12C376.04 148.507 376.88 153.267 376.88 158.4C376.88 159.707 376.787 161.06 376.6 162.46C376.507 163.86 376.274 165.073 375.9 166.1H317.1V152.1H365.54L356.86 158.68C357.7 154.387 357.467 150.56 356.16 147.2C354.947 143.84 352.894 141.18 350 139.22C347.2 137.26 343.794 136.28 339.78 136.28C335.954 136.28 332.547 137.26 329.56 139.22C326.574 141.087 324.287 143.887 322.7 147.62C321.207 151.26 320.647 155.693 321.02 160.92C320.647 165.587 321.254 169.74 322.84 173.38C324.52 176.927 326.947 179.68 330.12 181.64C333.387 183.6 337.12 184.58 341.32 184.58C345.52 184.58 349.067 183.693 351.96 181.92C354.947 180.147 357.28 177.767 358.96 174.78L373.8 182.06C372.307 185.7 369.974 188.92 366.8 191.72C363.627 194.52 359.847 196.713 355.46 198.3C351.167 199.887 346.407 200.68 341.18 200.68ZM424.663 200.68C417.103 200.68 410.29 198.953 404.223 195.5C398.25 191.953 393.536 187.193 390.083 181.22C386.63 175.153 384.903 168.34 384.903 160.78C384.903 153.22 386.63 146.453 390.083 140.48C393.536 134.507 398.25 129.793 404.223 126.34C410.29 122.887 417.103 121.16 424.663 121.16C430.076 121.16 435.116 122.14 439.783 124.1C444.45 125.967 448.463 128.58 451.823 131.94C455.276 135.207 457.75 139.127 459.243 143.7L443.143 150.7C441.743 146.873 439.363 143.793 436.003 141.46C432.736 139.127 428.956 137.96 424.663 137.96C420.65 137.96 417.056 138.94 413.883 140.9C410.803 142.86 408.376 145.567 406.603 149.02C404.83 152.473 403.943 156.44 403.943 160.92C403.943 165.4 404.83 169.367 406.603 172.82C408.376 176.273 410.803 178.98 413.883 180.94C417.056 182.9 420.65 183.88 424.663 183.88C429.05 183.88 432.876 182.713 436.143 180.38C439.41 178.047 441.743 174.92 443.143 171L459.243 178.28C457.75 182.573 455.323 186.447 451.963 189.9C448.603 193.26 444.59 195.92 439.923 197.88C435.256 199.747 430.17 200.68 424.663 200.68ZM507.599 200.68C500.132 200.68 493.319 198.953 487.159 195.5C481.092 192.047 476.239 187.333 472.599 181.36C469.052 175.387 467.279 168.573 467.279 160.92C467.279 153.267 469.052 146.453 472.599 140.48C476.239 134.507 481.092 129.793 487.159 126.34C493.225 122.887 500.039 121.16 507.599 121.16C515.065 121.16 521.832 122.887 527.899 126.34C533.965 129.793 538.772 134.507 542.319 140.48C545.959 146.36 547.779 153.173 547.779 160.92C547.779 168.573 545.959 175.387 542.319 181.36C538.679 187.333 533.825 192.047 527.759 195.5C521.692 198.953 514.972 200.68 507.599 200.68ZM507.599 183.88C511.705 183.88 515.299 182.9 518.379 180.94C521.552 178.98 524.025 176.273 525.799 172.82C527.665 169.273 528.599 165.307 528.599 160.92C528.599 156.44 527.665 152.52 525.799 149.16C524.025 145.707 521.552 143 518.379 141.04C515.299 138.987 511.705 137.96 507.599 137.96C503.399 137.96 499.712 138.987 496.539 141.04C493.365 143 490.845 145.707 488.979 149.16C487.205 152.52 486.319 156.44 486.319 160.92C486.319 165.307 487.205 169.273 488.979 172.82C490.845 176.273 493.365 178.98 496.539 180.94C499.712 182.9 503.399 183.88 507.599 183.88ZM586.047 200.68C580.167 200.68 575.034 199.373 570.647 196.76C566.354 194.147 563.04 190.507 560.707 185.84C558.467 181.173 557.347 175.713 557.347 169.46V122.84H575.687V167.92C575.687 171.093 576.294 173.893 577.507 176.32C578.814 178.653 580.634 180.52 582.967 181.92C585.394 183.227 588.1 183.88 591.087 183.88C594.074 183.88 596.734 183.227 599.067 181.92C601.4 180.52 603.22 178.607 604.527 176.18C605.834 173.753 606.487 170.86 606.487 167.5V122.84H624.827V199H607.467V184.02L609.007 186.68C607.234 191.347 604.294 194.847 600.187 197.18C596.174 199.513 591.46 200.68 586.047 200.68ZM639.075 227V122.84H656.295V137.96L654.615 134.18C657.228 130.073 660.775 126.9 665.255 124.66C669.735 122.327 674.915 121.16 680.795 121.16C687.982 121.16 694.468 122.933 700.255 126.48C706.042 130.027 710.615 134.787 713.975 140.76C717.428 146.733 719.155 153.453 719.155 160.92C719.155 168.293 717.475 175.013 714.115 181.08C710.755 187.147 706.182 191.953 700.395 195.5C694.608 198.953 688.028 200.68 680.655 200.68C675.148 200.68 670.062 199.607 665.395 197.46C660.822 195.22 657.182 192.047 654.475 187.94L657.415 184.3V227H639.075ZM678.555 183.88C682.755 183.88 686.488 182.9 689.755 180.94C693.022 178.98 695.542 176.273 697.315 172.82C699.182 169.367 700.115 165.4 700.115 160.92C700.115 156.44 699.182 152.52 697.315 149.16C695.542 145.707 693.022 143 689.755 141.04C686.488 138.987 682.755 137.96 678.555 137.96C674.542 137.96 670.902 138.94 667.635 140.9C664.462 142.86 661.942 145.613 660.075 149.16C658.302 152.613 657.415 156.533 657.415 160.92C657.415 165.4 658.302 169.367 660.075 172.82C661.942 176.273 664.462 178.98 667.635 180.94C670.902 182.9 674.542 183.88 678.555 183.88Z" fill="white"/>
<path fill-rule="evenodd" clip-rule="evenodd" d="M111.482 83C106.718 83 102.857 86.9593 102.857 91.8434V127.027C102.857 132.237 101.285 137.319 98.3582 141.578C93.7437 148.29 86.2342 152.283 78.2246 152.283H56.625C51.8615 152.283 48 156.242 48 161.126V205.157C48 210.041 51.8615 214 56.625 214H99.5183C104.282 214 108.143 210.041 108.143 205.157V175.073C108.143 168.993 109.977 163.061 113.394 158.091L113.998 157.212C119.384 149.377 128.149 144.717 137.497 144.717H154.375C159.139 144.717 163 140.758 163 135.874V91.8434C163 86.9593 159.139 83 154.375 83H111.482Z" fill="white"/>
</g>
<defs>
<clipPath id="clip0_1_2">
<rect width="790" height="298" fill="white"/>
</clipPath>
</defs>
</svg>
