<svg width="844" height="166" viewBox="0 0 844 166" fill="none" xmlns="http://www.w3.org/2000/svg">
<path fill-rule="evenodd" clip-rule="evenodd" d="M45.9868 36.0638C42.5361 36.0638 39.7387 38.928 39.7387 42.4612V67.9133C39.7387 71.6821 38.6004 75.3586 36.48 78.4391C33.1372 83.295 27.6972 86.1835 21.895 86.1835H6.24803C2.79734 86.1835 0 89.0477 0 92.5808V124.432C0 127.966 2.79734 130.83 6.24803 130.83H37.3203C40.771 130.83 43.5684 127.966 43.5684 124.432V102.67C43.5684 98.2714 44.897 93.9802 47.3721 90.3847L47.8095 89.7493C51.7111 84.0816 58.0605 80.7101 64.8327 80.7101H77.0591C80.5099 80.7101 83.3071 77.846 83.3071 74.3128V42.4612C83.3071 38.928 80.5098 36.0638 77.0592 36.0638H45.9868Z" fill="white"/>
<path d="M127.216 133V37.64H162.672C169.157 37.64 174.875 38.8347 179.824 41.224C184.859 43.528 188.784 46.9413 191.6 51.464C194.416 55.9013 195.824 61.32 195.824 67.72C195.824 74.2907 194.245 79.88 191.088 84.488C188.016 89.096 183.835 92.5093 178.544 94.728L200.432 133H180.72L157.296 91.144L168.56 97.8H144.624V133H127.216ZM144.624 82.44H162.928C166.085 82.44 168.816 81.8427 171.12 80.648C173.424 79.368 175.216 77.6187 176.496 75.4C177.776 73.1813 178.416 70.6213 178.416 67.72C178.416 64.7333 177.776 62.1733 176.496 60.04C175.216 57.8213 173.424 56.1147 171.12 54.92C168.816 53.64 166.085 53 162.928 53H144.624V82.44ZM235.742 134.536C228.574 134.536 222.302 132.915 216.926 129.672C211.55 126.429 207.369 122.035 204.382 116.488C201.395 110.941 199.902 104.797 199.902 98.056C199.902 91.0587 201.395 84.872 204.382 79.496C207.454 74.0347 211.593 69.7253 216.798 66.568C222.089 63.4107 227.977 61.832 234.462 61.832C239.923 61.832 244.702 62.728 248.798 64.52C252.979 66.312 256.521 68.7867 259.422 71.944C262.323 75.1013 264.542 78.728 266.078 82.824C267.614 86.8347 268.382 91.1867 268.382 95.88C268.382 97.0747 268.297 98.312 268.126 99.592C268.041 100.872 267.827 101.981 267.486 102.92H213.726V90.12H258.014L250.078 96.136C250.846 92.2107 250.633 88.712 249.438 85.64C248.329 82.568 246.451 80.136 243.806 78.344C241.246 76.552 238.131 75.656 234.462 75.656C230.963 75.656 227.849 76.552 225.118 78.344C222.387 80.0507 220.297 82.6107 218.846 86.024C217.481 89.352 216.969 93.4053 217.31 98.184C216.969 102.451 217.523 106.248 218.974 109.576C220.51 112.819 222.729 115.336 225.63 117.128C228.617 118.92 232.03 119.816 235.87 119.816C239.71 119.816 242.953 119.005 245.598 117.384C248.329 115.763 250.462 113.587 251.998 110.856L265.566 117.512C264.201 120.84 262.067 123.784 259.166 126.344C256.265 128.904 252.809 130.909 248.798 132.36C244.873 133.811 240.521 134.536 235.742 134.536ZM310.789 134.536C303.877 134.536 297.648 132.957 292.101 129.8C286.64 126.557 282.33 122.205 279.173 116.744C276.016 111.197 274.437 104.968 274.437 98.056C274.437 91.144 276.016 84.9573 279.173 79.496C282.33 74.0347 286.64 69.7253 292.101 66.568C297.648 63.4107 303.877 61.832 310.789 61.832C315.738 61.832 320.346 62.728 324.613 64.52C328.88 66.2267 332.549 68.616 335.621 71.688C338.778 74.6747 341.04 78.2587 342.405 82.44L327.685 88.84C326.405 85.3413 324.229 82.5253 321.157 80.392C318.17 78.2587 314.714 77.192 310.789 77.192C307.12 77.192 303.834 78.088 300.933 79.88C298.117 81.672 295.898 84.1467 294.277 87.304C292.656 90.4613 291.845 94.088 291.845 98.184C291.845 102.28 292.656 105.907 294.277 109.064C295.898 112.221 298.117 114.696 300.933 116.488C303.834 118.28 307.12 119.176 310.789 119.176C314.8 119.176 318.298 118.109 321.285 115.976C324.272 113.843 326.405 110.984 327.685 107.4L342.405 114.056C341.04 117.981 338.821 121.523 335.749 124.68C332.677 127.752 329.008 130.184 324.741 131.976C320.474 133.683 315.824 134.536 310.789 134.536ZM385.336 134.536C378.509 134.536 372.28 132.957 366.648 129.8C361.101 126.643 356.664 122.333 353.336 116.872C350.093 111.411 348.472 105.181 348.472 98.184C348.472 91.1867 350.093 84.9573 353.336 79.496C356.664 74.0347 361.101 69.7253 366.648 66.568C372.195 63.4107 378.424 61.832 385.336 61.832C392.163 61.832 398.349 63.4107 403.896 66.568C409.443 69.7253 413.837 74.0347 417.08 79.496C420.408 84.872 422.072 91.1013 422.072 98.184C422.072 105.181 420.408 111.411 417.08 116.872C413.752 122.333 409.315 126.643 403.768 129.8C398.221 132.957 392.077 134.536 385.336 134.536ZM385.336 119.176C389.091 119.176 392.376 118.28 395.192 116.488C398.093 114.696 400.355 112.221 401.976 109.064C403.683 105.821 404.536 102.195 404.536 98.184C404.536 94.088 403.683 90.504 401.976 87.432C400.355 84.2747 398.093 81.8 395.192 80.008C392.376 78.1307 389.091 77.192 385.336 77.192C381.496 77.192 378.125 78.1307 375.224 80.008C372.323 81.8 370.019 84.2747 368.312 87.432C366.691 90.504 365.88 94.088 365.88 98.184C365.88 102.195 366.691 105.821 368.312 109.064C370.019 112.221 372.323 114.696 375.224 116.488C378.125 118.28 381.496 119.176 385.336 119.176ZM455.78 134.536C450.404 134.536 445.711 133.341 441.7 130.952C437.775 128.563 434.745 125.235 432.612 120.968C430.564 116.701 429.54 111.709 429.54 105.992V63.368H446.308V104.584C446.308 107.485 446.863 110.045 447.972 112.264C449.167 114.397 450.831 116.104 452.964 117.384C455.183 118.579 457.657 119.176 460.388 119.176C463.119 119.176 465.551 118.579 467.684 117.384C469.817 116.104 471.481 114.355 472.676 112.136C473.871 109.917 474.468 107.272 474.468 104.2V63.368H491.236V133H475.364V119.304L476.772 121.736C475.151 126.003 472.463 129.203 468.708 131.336C465.039 133.469 460.729 134.536 455.78 134.536ZM502.983 158.6V63.368H518.727V77.192L517.191 73.736C519.58 69.9813 522.823 67.08 526.919 65.032C531.015 62.8987 535.751 61.832 541.127 61.832C547.698 61.832 553.628 63.4533 558.919 66.696C564.21 69.9387 568.391 74.2907 571.463 79.752C574.62 85.2133 576.199 91.3573 576.199 98.184C576.199 104.925 574.663 111.069 571.591 116.616C568.519 122.163 564.338 126.557 559.047 129.8C553.756 132.957 547.74 134.536 540.999 134.536C535.964 134.536 531.314 133.555 527.047 131.592C522.866 129.544 519.538 126.643 517.063 122.888L519.751 119.56V158.6H502.983ZM539.079 119.176C542.919 119.176 546.332 118.28 549.319 116.488C552.306 114.696 554.61 112.221 556.231 109.064C557.938 105.907 558.791 102.28 558.791 98.184C558.791 94.088 557.938 90.504 556.231 87.432C554.61 84.2747 552.306 81.8 549.319 80.008C546.332 78.1307 542.919 77.192 539.079 77.192C535.41 77.192 532.082 78.088 529.095 79.88C526.194 81.672 523.89 84.1893 522.183 87.432C520.562 90.5893 519.751 94.1733 519.751 98.184C519.751 102.28 520.562 105.907 522.183 109.064C523.89 112.221 526.194 114.696 529.095 116.488C532.082 118.28 535.41 119.176 539.079 119.176ZM606.263 134.536C601.399 134.536 597.175 133.725 593.591 132.104C590.007 130.483 587.234 128.179 585.271 125.192C583.308 122.12 582.327 118.579 582.327 114.568C582.327 110.728 583.18 107.315 584.887 104.328C586.594 101.256 589.239 98.696 592.823 96.648C596.407 94.6 600.93 93.1493 606.391 92.296L629.175 88.584V101.384L609.591 104.712C606.263 105.309 603.788 106.376 602.167 107.912C600.546 109.448 599.735 111.453 599.735 113.928C599.735 116.317 600.631 118.237 602.423 119.688C604.3 121.053 606.604 121.736 609.335 121.736C612.834 121.736 615.906 121.011 618.551 119.56C621.282 118.024 623.372 115.933 624.823 113.288C626.359 110.643 627.127 107.741 627.127 104.584V86.664C627.127 83.6773 625.932 81.2027 623.543 79.24C621.239 77.192 618.167 76.168 614.327 76.168C610.743 76.168 607.543 77.1493 604.727 79.112C601.996 80.9893 599.991 83.5067 598.711 86.664L585.015 80.008C586.38 76.3387 588.514 73.1813 591.415 70.536C594.402 67.8053 597.9 65.672 601.911 64.136C605.922 62.6 610.274 61.832 614.967 61.832C620.684 61.832 625.719 62.8987 630.071 65.032C634.423 67.08 637.794 69.9813 640.183 73.736C642.658 77.4053 643.895 81.7147 643.895 86.664V133H628.023V121.096L631.607 120.84C629.815 123.827 627.682 126.344 625.207 128.392C622.732 130.355 619.916 131.891 616.759 133C613.602 134.024 610.103 134.536 606.263 134.536ZM693.569 134.536C688.534 134.536 683.884 133.555 679.617 131.592C675.436 129.544 672.108 126.643 669.633 122.888L671.297 119.56V133H655.553V36.104H672.321V77.192L669.761 73.736C672.15 69.9813 675.393 67.08 679.489 65.032C683.585 62.8987 688.321 61.832 693.697 61.832C700.268 61.832 706.198 63.4533 711.489 66.696C716.78 69.9387 720.961 74.2907 724.033 79.752C727.19 85.2133 728.769 91.3573 728.769 98.184C728.769 104.925 727.233 111.069 724.161 116.616C721.089 122.163 716.908 126.557 711.617 129.8C706.326 132.957 700.31 134.536 693.569 134.536ZM691.649 119.176C695.489 119.176 698.902 118.28 701.889 116.488C704.876 114.696 707.18 112.221 708.801 109.064C710.508 105.907 711.361 102.28 711.361 98.184C711.361 94.088 710.508 90.504 708.801 87.432C707.18 84.2747 704.876 81.8 701.889 80.008C698.902 78.1307 695.489 77.192 691.649 77.192C687.98 77.192 684.652 78.088 681.665 79.88C678.764 81.672 676.46 84.1893 674.753 87.432C673.132 90.5893 672.321 94.1733 672.321 98.184C672.321 102.28 673.132 105.907 674.753 109.064C676.46 112.221 678.764 114.696 681.665 116.488C684.652 118.28 687.98 119.176 691.649 119.176ZM737.713 133V36.104H754.481V133H737.713ZM799.147 134.536C791.979 134.536 785.707 132.915 780.331 129.672C774.955 126.429 770.774 122.035 767.787 116.488C764.8 110.941 763.307 104.797 763.307 98.056C763.307 91.0587 764.8 84.872 767.787 79.496C770.859 74.0347 774.998 69.7253 780.203 66.568C785.494 63.4107 791.382 61.832 797.867 61.832C803.328 61.832 808.107 62.728 812.203 64.52C816.384 66.312 819.926 68.7867 822.827 71.944C825.728 75.1013 827.947 78.728 829.483 82.824C831.019 86.8347 831.787 91.1867 831.787 95.88C831.787 97.0747 831.702 98.312 831.531 99.592C831.446 100.872 831.232 101.981 830.891 102.92H777.131V90.12H821.419L813.483 96.136C814.251 92.2107 814.038 88.712 812.843 85.64C811.734 82.568 809.856 80.136 807.211 78.344C804.651 76.552 801.536 75.656 797.867 75.656C794.368 75.656 791.254 76.552 788.523 78.344C785.792 80.0507 783.702 82.6107 782.251 86.024C780.886 89.352 780.374 93.4053 780.715 98.184C780.374 102.451 780.928 106.248 782.379 109.576C783.915 112.819 786.134 115.336 789.035 117.128C792.022 118.92 795.435 119.816 799.275 119.816C803.115 119.816 806.358 119.005 809.003 117.384C811.734 115.763 813.867 113.587 815.403 110.856L828.971 117.512C827.606 120.84 825.472 123.784 822.571 126.344C819.67 128.904 816.214 130.909 812.203 132.36C808.278 133.811 803.926 134.536 799.147 134.536Z" fill="white"/>
</svg>
