<svg width="856" height="234" viewBox="0 0 856 234" fill="none" xmlns="http://www.w3.org/2000/svg">
<path d="M202.421 168.783V49.7051H246.656C254.747 49.7051 261.88 51.1969 268.054 54.1805C274.336 57.0575 279.233 61.3198 282.746 66.9674C286.259 72.5084 288.016 79.2748 288.016 87.2666C288.016 95.4715 286.046 102.451 282.107 108.205C278.275 113.959 273.058 118.221 266.458 120.992L293.765 168.783H269.172L239.949 116.517L254.002 124.828H224.139V168.783H202.421ZM224.139 105.648H246.975C250.914 105.648 254.321 104.902 257.195 103.41C260.07 101.812 262.306 99.6272 263.902 96.8567C265.499 94.0862 266.298 90.8895 266.298 87.2666C266.298 83.537 265.499 80.3403 263.902 77.6764C262.306 74.9059 260.07 72.7748 257.195 71.283C254.321 69.6846 250.914 68.8854 246.975 68.8854H224.139V105.648ZM342.608 170.701C333.665 170.701 325.84 168.676 319.133 164.627C312.426 160.578 307.21 155.09 303.484 148.164C299.757 141.238 297.894 133.566 297.894 125.148C297.894 116.41 299.757 108.685 303.484 101.971C307.316 95.1518 312.48 89.7707 318.974 85.828C325.574 81.8854 332.92 79.9141 341.011 79.9141C347.825 79.9141 353.787 81.033 358.897 83.2707C364.113 85.5084 368.532 88.5985 372.151 92.5411C375.771 96.4838 378.539 101.012 380.455 106.127C382.372 111.135 383.33 116.57 383.33 122.43C383.33 123.922 383.223 125.467 383.01 127.066C382.904 128.664 382.638 130.049 382.212 131.221H315.141V115.238H370.395L360.494 122.75C361.452 117.849 361.186 113.48 359.695 109.644C358.311 105.808 355.969 102.771 352.669 100.533C349.475 98.2952 345.589 97.1764 341.011 97.1764C336.646 97.1764 332.76 98.2952 329.354 100.533C325.947 102.664 323.339 105.861 321.529 110.123C319.825 114.279 319.187 119.34 319.612 125.308C319.187 130.635 319.879 135.377 321.688 139.533C323.605 143.582 326.373 146.726 329.992 148.963C333.719 151.201 337.977 152.32 342.768 152.32C347.559 152.32 351.604 151.308 354.904 149.283C358.311 147.258 360.973 144.541 362.889 141.131L379.816 149.443C378.113 153.599 375.452 157.275 371.832 160.471C368.212 163.668 363.9 166.172 358.897 167.984C354 169.795 348.57 170.701 342.608 170.701ZM441.028 170.701C432.404 170.701 424.633 168.73 417.713 164.787C410.899 160.738 405.523 155.303 401.584 148.484C397.645 141.558 395.675 133.779 395.675 125.148C395.675 116.517 397.645 108.791 401.584 101.971C405.523 95.1518 410.899 89.7707 417.713 85.828C424.633 81.8854 432.404 79.9141 441.028 79.9141C447.203 79.9141 452.952 81.033 458.275 83.2707C463.598 85.4018 468.176 88.3854 472.008 92.2215C475.947 95.951 478.768 100.426 480.472 105.648L462.107 113.639C460.51 109.271 457.796 105.754 453.963 103.09C450.237 100.426 445.925 99.0944 441.028 99.0944C436.45 99.0944 432.351 100.213 428.732 102.451C425.218 104.689 422.45 107.779 420.428 111.721C418.405 115.664 417.393 120.193 417.393 125.308C417.393 130.422 418.405 134.951 420.428 138.894C422.45 142.836 425.218 145.926 428.732 148.164C432.351 150.402 436.45 151.521 441.028 151.521C446.032 151.521 450.396 150.189 454.123 147.525C457.849 144.861 460.51 141.291 462.107 136.816L480.472 145.127C478.768 150.029 476 154.451 472.168 158.394C468.335 162.23 463.757 165.267 458.434 167.504C453.111 169.635 447.309 170.701 441.028 170.701ZM538.823 170.701C530.307 170.701 522.535 168.73 515.508 164.787C508.588 160.844 503.052 155.463 498.9 148.644C494.855 141.824 492.832 134.045 492.832 125.308C492.832 116.57 494.855 108.791 498.9 101.971C503.052 95.1518 508.588 89.7707 515.508 85.828C522.428 81.8854 530.2 79.9141 538.823 79.9141C547.34 79.9141 555.059 81.8854 561.979 85.828C568.899 89.7707 574.382 95.1518 578.427 101.971C582.579 108.685 584.655 116.463 584.655 125.308C584.655 134.045 582.579 141.824 578.427 148.644C574.275 155.463 568.739 160.844 561.819 164.787C554.899 168.73 547.234 170.701 538.823 170.701ZM538.823 151.521C543.508 151.521 547.607 150.402 551.12 148.164C554.739 145.926 557.561 142.836 559.583 138.894C561.713 134.844 562.777 130.316 562.777 125.308C562.777 120.193 561.713 115.717 559.583 111.881C557.561 107.939 554.739 104.849 551.12 102.611C547.607 100.267 543.508 99.0944 538.823 99.0944C534.033 99.0944 529.827 100.267 526.208 102.611C522.588 104.849 519.714 107.939 517.584 111.881C515.562 115.717 514.55 120.193 514.55 125.308C514.55 130.316 515.562 134.844 517.584 138.894C519.714 142.836 522.588 145.926 526.208 148.164C529.827 150.402 534.033 151.521 538.823 151.521ZM631.5 170.701C624.792 170.701 618.937 169.209 613.933 166.226C609.036 163.242 605.257 159.086 602.595 153.758C600.04 148.43 598.763 142.197 598.763 135.058V81.8321H619.682V133.299C619.682 136.922 620.374 140.119 621.758 142.89C623.249 145.553 625.325 147.685 627.986 149.283C630.754 150.775 633.842 151.521 637.248 151.521C640.655 151.521 643.689 150.775 646.351 149.283C649.012 147.685 651.088 145.5 652.579 142.73C654.069 139.959 654.815 136.656 654.815 132.82V81.8321H675.734V168.783H655.932V151.68L657.689 154.717C655.666 160.045 652.313 164.041 647.628 166.705C643.051 169.369 637.674 170.701 631.5 170.701ZM695.181 200.75V81.8321H714.823V99.0944L712.907 94.7789C715.888 90.0903 719.933 86.4674 725.043 83.91C730.153 81.2461 736.062 79.9141 742.769 79.9141C750.967 79.9141 758.366 81.9387 764.966 85.9879C771.567 90.037 776.784 95.4715 780.616 102.291C784.555 109.111 786.525 116.783 786.525 125.308C786.525 133.726 784.608 141.398 780.776 148.324C776.943 155.25 771.727 160.738 765.126 164.787C758.525 168.73 751.02 170.701 742.609 170.701C736.328 170.701 730.526 169.476 725.203 167.025C719.986 164.467 715.834 160.844 712.747 156.156L716.1 152V200.75H695.181ZM740.214 151.521C745.005 151.521 749.263 150.402 752.989 148.164C756.716 145.926 759.59 142.836 761.613 138.894C763.742 134.951 764.807 130.422 764.807 125.308C764.807 120.193 763.742 115.717 761.613 111.881C759.59 107.939 756.716 104.849 752.989 102.611C749.263 100.267 745.005 99.0944 740.214 99.0944C735.636 99.0944 731.484 100.213 727.758 102.451C724.138 104.689 721.264 107.832 719.135 111.881C717.112 115.824 716.1 120.299 716.1 125.308C716.1 130.422 717.112 134.951 719.135 138.894C721.264 142.836 724.138 145.926 727.758 148.164C731.484 150.402 735.636 151.521 740.214 151.521Z" fill="black"/>
<path fill-rule="evenodd" clip-rule="evenodd" d="M105.97 50.2378C101.56 50.2378 97.9849 53.8159 97.9849 58.2296V90.0213C97.9849 94.7308 96.53 99.3248 93.8194 103.174C89.5464 109.241 82.5927 112.851 75.1761 112.851H55.1846C50.7748 112.851 47.2 116.429 47.2 120.843V160.633C47.2 165.047 50.7748 168.624 55.1846 168.624H94.8932C99.3029 168.624 102.878 165.047 102.878 160.633V133.444C102.878 127.949 104.576 122.589 107.739 118.098L108.297 117.304C113.283 110.223 121.397 106.011 130.052 106.011H145.678C150.088 106.011 153.663 102.434 153.663 98.0195V58.2296C153.663 53.8159 150.088 50.2378 145.678 50.2378H105.97Z" fill="black"/>
</svg>
