<svg width="1068" height="298" viewBox="0 0 1068 298" fill="none" xmlns="http://www.w3.org/2000/svg">
<path d="M264.216 193V97.64H299.672C306.157 97.64 311.875 98.8347 316.824 101.224C321.859 103.528 325.784 106.941 328.6 111.464C331.416 115.901 332.824 121.32 332.824 127.72C332.824 134.291 331.245 139.88 328.088 144.488C325.016 149.096 320.835 152.509 315.544 154.728L337.432 193H317.72L294.296 151.144L305.56 157.8H281.624V193H264.216ZM281.624 142.44H299.928C303.085 142.44 305.816 141.843 308.12 140.648C310.424 139.368 312.216 137.619 313.496 135.4C314.776 133.181 315.416 130.621 315.416 127.72C315.416 124.733 314.776 122.173 313.496 120.04C312.216 117.821 310.424 116.115 308.12 114.92C305.816 113.64 303.085 113 299.928 113H281.624V142.44ZM374.022 194.536C366.854 194.536 360.582 192.915 355.206 189.672C349.83 186.429 345.649 182.035 342.662 176.488C339.675 170.941 338.182 164.797 338.182 158.056C338.182 151.059 339.675 144.872 342.662 139.496C345.734 134.035 349.873 129.725 355.078 126.568C360.369 123.411 366.257 121.832 372.742 121.832C378.203 121.832 382.982 122.728 387.078 124.52C391.259 126.312 394.801 128.787 397.702 131.944C400.603 135.101 402.822 138.728 404.358 142.824C405.894 146.835 406.662 151.187 406.662 155.88C406.662 157.075 406.577 158.312 406.406 159.592C406.321 160.872 406.107 161.981 405.766 162.92H352.006V150.12H396.294L388.358 156.136C389.126 152.211 388.913 148.712 387.718 145.64C386.609 142.568 384.731 140.136 382.086 138.344C379.526 136.552 376.411 135.656 372.742 135.656C369.243 135.656 366.129 136.552 363.398 138.344C360.667 140.051 358.577 142.611 357.126 146.024C355.761 149.352 355.249 153.405 355.59 158.184C355.249 162.451 355.803 166.248 357.254 169.576C358.79 172.819 361.009 175.336 363.91 177.128C366.897 178.92 370.31 179.816 374.15 179.816C377.99 179.816 381.233 179.005 383.878 177.384C386.609 175.763 388.742 173.587 390.278 170.856L403.846 177.512C402.481 180.84 400.347 183.784 397.446 186.344C394.545 188.904 391.089 190.909 387.078 192.36C383.153 193.811 378.801 194.536 374.022 194.536ZM450.349 194.536C443.437 194.536 437.208 192.957 431.661 189.8C426.2 186.557 421.89 182.205 418.733 176.744C415.576 171.197 413.997 164.968 413.997 158.056C413.997 151.144 415.576 144.957 418.733 139.496C421.89 134.035 426.2 129.725 431.661 126.568C437.208 123.411 443.437 121.832 450.349 121.832C455.298 121.832 459.906 122.728 464.173 124.52C468.44 126.227 472.109 128.616 475.181 131.688C478.338 134.675 480.6 138.259 481.965 142.44L467.245 148.84C465.965 145.341 463.789 142.525 460.717 140.392C457.73 138.259 454.274 137.192 450.349 137.192C446.68 137.192 443.394 138.088 440.493 139.88C437.677 141.672 435.458 144.147 433.837 147.304C432.216 150.461 431.405 154.088 431.405 158.184C431.405 162.28 432.216 165.907 433.837 169.064C435.458 172.221 437.677 174.696 440.493 176.488C443.394 178.28 446.68 179.176 450.349 179.176C454.36 179.176 457.858 178.109 460.845 175.976C463.832 173.843 465.965 170.984 467.245 167.4L481.965 174.056C480.6 177.981 478.381 181.523 475.309 184.68C472.237 187.752 468.568 190.184 464.301 191.976C460.034 193.683 455.384 194.536 450.349 194.536ZM526.176 194.536C519.349 194.536 513.12 192.957 507.488 189.8C501.941 186.643 497.504 182.333 494.176 176.872C490.933 171.411 489.312 165.181 489.312 158.184C489.312 151.187 490.933 144.957 494.176 139.496C497.504 134.035 501.941 129.725 507.488 126.568C513.035 123.411 519.264 121.832 526.176 121.832C533.003 121.832 539.189 123.411 544.736 126.568C550.283 129.725 554.677 134.035 557.92 139.496C561.248 144.872 562.912 151.101 562.912 158.184C562.912 165.181 561.248 171.411 557.92 176.872C554.592 182.333 550.155 186.643 544.608 189.8C539.061 192.957 532.917 194.536 526.176 194.536ZM526.176 179.176C529.931 179.176 533.216 178.28 536.032 176.488C538.933 174.696 541.195 172.221 542.816 169.064C544.523 165.821 545.376 162.195 545.376 158.184C545.376 154.088 544.523 150.504 542.816 147.432C541.195 144.275 538.933 141.8 536.032 140.008C533.216 138.131 529.931 137.192 526.176 137.192C522.336 137.192 518.965 138.131 516.064 140.008C513.163 141.8 510.859 144.275 509.152 147.432C507.531 150.504 506.72 154.088 506.72 158.184C506.72 162.195 507.531 165.821 509.152 169.064C510.859 172.221 513.163 174.696 516.064 176.488C518.965 178.28 522.336 179.176 526.176 179.176ZM597.9 194.536C592.524 194.536 587.831 193.341 583.82 190.952C579.895 188.563 576.865 185.235 574.732 180.968C572.684 176.701 571.66 171.709 571.66 165.992V123.368H588.428V164.584C588.428 167.485 588.983 170.045 590.092 172.264C591.287 174.397 592.951 176.104 595.084 177.384C597.303 178.579 599.777 179.176 602.508 179.176C605.239 179.176 607.671 178.579 609.804 177.384C611.937 176.104 613.601 174.355 614.796 172.136C615.991 169.917 616.588 167.272 616.588 164.2V123.368H633.356V193H617.484V179.304L618.892 181.736C617.271 186.003 614.583 189.203 610.828 191.336C607.159 193.469 602.849 194.536 597.9 194.536ZM646.383 218.6V123.368H662.127V137.192L660.591 133.736C662.98 129.981 666.223 127.08 670.319 125.032C674.415 122.899 679.151 121.832 684.527 121.832C691.098 121.832 697.028 123.453 702.319 126.696C707.61 129.939 711.791 134.291 714.863 139.752C718.02 145.213 719.599 151.357 719.599 158.184C719.599 164.925 718.063 171.069 714.991 176.616C711.919 182.163 707.738 186.557 702.447 189.8C697.156 192.957 691.14 194.536 684.399 194.536C679.364 194.536 674.714 193.555 670.447 191.592C666.266 189.544 662.938 186.643 660.463 182.888L663.151 179.56V218.6H646.383ZM682.479 179.176C686.319 179.176 689.732 178.28 692.719 176.488C695.706 174.696 698.01 172.221 699.631 169.064C701.338 165.907 702.191 162.28 702.191 158.184C702.191 154.088 701.338 150.504 699.631 147.432C698.01 144.275 695.706 141.8 692.719 140.008C689.732 138.131 686.319 137.192 682.479 137.192C678.81 137.192 675.482 138.088 672.495 139.88C669.594 141.672 667.29 144.189 665.583 147.432C663.962 150.589 663.151 154.173 663.151 158.184C663.151 162.28 663.962 165.907 665.583 169.064C667.29 172.221 669.594 174.696 672.495 176.488C675.482 178.28 678.81 179.176 682.479 179.176ZM750.943 194.536C746.079 194.536 741.855 193.725 738.271 192.104C734.687 190.483 731.914 188.179 729.951 185.192C727.988 182.12 727.007 178.579 727.007 174.568C727.007 170.728 727.86 167.315 729.567 164.328C731.274 161.256 733.919 158.696 737.503 156.648C741.087 154.6 745.61 153.149 751.071 152.296L773.855 148.584V161.384L754.271 164.712C750.943 165.309 748.468 166.376 746.847 167.912C745.226 169.448 744.415 171.453 744.415 173.928C744.415 176.317 745.311 178.237 747.103 179.688C748.98 181.053 751.284 181.736 754.015 181.736C757.514 181.736 760.586 181.011 763.231 179.56C765.962 178.024 768.052 175.933 769.503 173.288C771.039 170.643 771.807 167.741 771.807 164.584V146.664C771.807 143.677 770.612 141.203 768.223 139.24C765.919 137.192 762.847 136.168 759.007 136.168C755.423 136.168 752.223 137.149 749.407 139.112C746.676 140.989 744.671 143.507 743.391 146.664L729.695 140.008C731.06 136.339 733.194 133.181 736.095 130.536C739.082 127.805 742.58 125.672 746.591 124.136C750.602 122.6 754.954 121.832 759.647 121.832C765.364 121.832 770.399 122.899 774.751 125.032C779.103 127.08 782.474 129.981 784.863 133.736C787.338 137.405 788.575 141.715 788.575 146.664V193H772.703V181.096L776.287 180.84C774.495 183.827 772.362 186.344 769.887 188.392C767.412 190.355 764.596 191.891 761.439 193C758.282 194.024 754.783 194.536 750.943 194.536ZM839.529 194.536C834.494 194.536 829.844 193.555 825.577 191.592C821.396 189.544 818.068 186.643 815.593 182.888L817.257 179.56V193H801.513V96.104H818.281V137.192L815.721 133.736C818.11 129.981 821.353 127.08 825.449 125.032C829.545 122.899 834.281 121.832 839.657 121.832C846.228 121.832 852.158 123.453 857.449 126.696C862.74 129.939 866.921 134.291 869.993 139.752C873.15 145.213 874.729 151.357 874.729 158.184C874.729 164.925 873.193 171.069 870.121 176.616C867.049 182.163 862.868 186.557 857.577 189.8C852.286 192.957 846.27 194.536 839.529 194.536ZM837.609 179.176C841.449 179.176 844.862 178.28 847.849 176.488C850.836 174.696 853.14 172.221 854.761 169.064C856.468 165.907 857.321 162.28 857.321 158.184C857.321 154.088 856.468 150.504 854.761 147.432C853.14 144.275 850.836 141.8 847.849 140.008C844.862 138.131 841.449 137.192 837.609 137.192C833.94 137.192 830.612 138.088 827.625 139.88C824.724 141.672 822.42 144.189 820.713 147.432C819.092 150.589 818.281 154.173 818.281 158.184C818.281 162.28 819.092 165.907 820.713 169.064C822.42 172.221 824.724 174.696 827.625 176.488C830.612 178.28 833.94 179.176 837.609 179.176ZM884.953 193V96.104H901.721V193H884.953ZM947.667 194.536C940.499 194.536 934.227 192.915 928.851 189.672C923.475 186.429 919.294 182.035 916.307 176.488C913.32 170.941 911.827 164.797 911.827 158.056C911.827 151.059 913.32 144.872 916.307 139.496C919.379 134.035 923.518 129.725 928.723 126.568C934.014 123.411 939.902 121.832 946.387 121.832C951.848 121.832 956.627 122.728 960.723 124.52C964.904 126.312 968.446 128.787 971.347 131.944C974.248 135.101 976.467 138.728 978.003 142.824C979.539 146.835 980.307 151.187 980.307 155.88C980.307 157.075 980.222 158.312 980.051 159.592C979.966 160.872 979.752 161.981 979.411 162.92H925.651V150.12H969.939L962.003 156.136C962.771 152.211 962.558 148.712 961.363 145.64C960.254 142.568 958.376 140.136 955.731 138.344C953.171 136.552 950.056 135.656 946.387 135.656C942.888 135.656 939.774 136.552 937.043 138.344C934.312 140.051 932.222 142.611 930.771 146.024C929.406 149.352 928.894 153.405 929.235 158.184C928.894 162.451 929.448 166.248 930.899 169.576C932.435 172.819 934.654 175.336 937.555 177.128C940.542 178.92 943.955 179.816 947.795 179.816C951.635 179.816 954.878 179.005 957.523 177.384C960.254 175.763 962.387 173.587 963.923 170.856L977.491 177.512C976.126 180.84 973.992 183.784 971.091 186.344C968.19 188.904 964.734 190.909 960.723 192.36C956.798 193.811 952.446 194.536 947.667 194.536Z" fill="white"/>
<g clip-path="url(#clip0_957_12)">
<path fill-rule="evenodd" clip-rule="evenodd" d="M150.106 79C144.845 79 140.581 83.2558 140.581 88.5056V126.324C140.581 131.924 138.846 137.387 135.613 141.964C130.517 149.179 122.224 153.471 113.378 153.471H89.525C84.2645 153.471 80 157.727 80 162.977V210.304C80 215.554 84.2645 219.81 89.525 219.81H136.894C142.155 219.81 146.419 215.554 146.419 210.304V177.968C146.419 171.432 148.445 165.056 152.218 159.714L152.885 158.77C158.833 150.348 168.512 145.339 178.836 145.339H197.475C202.736 145.339 207 141.083 207 135.833V88.5056C207 83.2558 202.736 79 197.475 79H150.106Z" fill="white"/>
</g>
<defs>
<clipPath id="clip0_957_12">
<rect width="127" height="141" fill="white" transform="translate(80 79)"/>
</clipPath>
</defs>
</svg>
