<svg xmlns="http://www.w3.org/2000/svg" xmlns:xlink="http://www.w3.org/1999/xlink" width="1080" zoomAndPan="magnify" viewBox="0 0 810 809.999993" height="1080" preserveAspectRatio="xMidYMid meet" version="1.0"><defs><clipPath id="bf77750fbc"><path d="M 492 294.167969 L 556.882812 294.167969 L 556.882812 377 L 492 377 Z M 492 294.167969 " clip-rule="nonzero"/></clipPath><clipPath id="d7bac1e473"><path d="M 253.132812 361 L 346 361 L 346 437 L 253.132812 437 Z M 253.132812 361 " clip-rule="nonzero"/></clipPath><clipPath id="4a6457caa5"><path d="M 416 447 L 468 447 L 468 516.167969 L 416 516.167969 Z M 416 447 " clip-rule="nonzero"/></clipPath></defs><g clip-path="url(#bf77750fbc)"><path fill="#f06321" d="M 496.414062 294.015625 C 497.550781 294.015625 498.691406 294.015625 499.832031 294.015625 C 533.425781 307.835938 552.390625 332.847656 556.726562 369.050781 C 556.726562 370.195312 556.726562 371.335938 556.726562 372.476562 C 555.386719 375.640625 553.003906 376.832031 549.578125 376.058594 C 547.429688 375.15625 546.238281 373.546875 546 371.230469 C 544.074219 348.425781 534.28125 329.902344 516.621094 315.65625 C 510.417969 310.886719 503.578125 307.253906 496.101562 304.757812 C 492.542969 302.574219 491.765625 299.613281 493.769531 295.882812 C 494.601562 295.136719 495.480469 294.511719 496.414062 294.015625 Z M 496.414062 294.015625 " fill-opacity="0.97" fill-rule="evenodd"/></g><path fill="#f06321" d="M 492.371094 310.519531 C 494.480469 310.375 496.449219 310.84375 498.277344 311.917969 C 523.21875 323.679688 537.105469 343.34375 539.9375 370.921875 C 539.441406 375.203125 537.058594 376.914062 532.789062 376.058594 C 531.59375 375.539062 530.609375 374.761719 529.835938 373.722656 C 528.183594 355.210938 520.152344 340.214844 505.738281 328.730469 C 501.183594 325.570312 496.3125 322.972656 491.128906 320.949219 C 488.546875 319.113281 487.769531 316.671875 488.796875 313.632812 C 489.671875 312.179688 490.863281 311.140625 492.371094 310.519531 Z M 492.371094 310.519531 " fill-opacity="0.969" fill-rule="evenodd"/><path fill="#f06321" d="M 488.640625 326.085938 C 489.710938 326.023438 490.746094 326.179688 491.75 326.550781 C 509.835938 334.808594 520.5625 348.769531 523.925781 368.429688 C 524.804688 373.984375 522.472656 376.527344 516.933594 376.058594 C 515.875 375.621094 514.992188 374.945312 514.289062 374.035156 C 512.058594 355.75 502.523438 342.984375 485.6875 335.738281 C 483.011719 331.324219 483.996094 328.109375 488.640625 326.085938 Z M 488.640625 326.085938 " fill-opacity="0.968" fill-rule="evenodd"/><path fill="#000000" d="M 298.992188 341.34375 C 316.5 341.75 329.867188 349.328125 339.097656 364.070312 C 338.753906 364.503906 338.339844 364.867188 337.851562 365.160156 C 332.179688 367.871094 326.53125 370.621094 320.910156 373.410156 C 313.214844 363.679688 303.417969 360.515625 291.527344 363.914062 C 288.039062 365.339844 285.085938 367.464844 282.667969 370.296875 C 282.183594 371.128906 281.820312 372.011719 281.578125 372.945312 C 282.582031 376.335938 284.757812 378.617188 288.109375 379.792969 C 289.625 380.355469 291.179688 380.769531 292.773438 381.039062 C 300.695312 381.632812 308.363281 380.492188 315.777344 377.613281 C 319.855469 375.9375 323.898438 374.171875 327.902344 372.320312 C 340.441406 365.578125 353.1875 359.246094 366.144531 353.328125 C 374.367188 349.53125 382.96875 347.042969 391.949219 345.855469 C 400.019531 344.746094 407.6875 345.992188 414.957031 349.59375 C 422.703125 354.566406 427.105469 361.675781 428.167969 370.921875 C 428.386719 381.089844 428.59375 391.261719 428.792969 401.433594 C 430.070312 408.941406 434.269531 413.972656 441.382812 416.535156 C 445.511719 416.890625 449.453125 416.164062 453.195312 414.355469 C 466.308594 407.867188 476.101562 398.058594 482.578125 384.929688 C 484.320312 380.8125 484.835938 376.558594 484.132812 372.164062 C 482.492188 366.304688 478.65625 362.882812 472.628906 361.890625 C 465.003906 363.195312 461.011719 367.710938 460.660156 375.433594 C 460.9375 382.082031 463.0625 388.050781 467.03125 393.339844 C 468.3125 395.140625 469.710938 396.851562 471.230469 398.476562 C 466.585938 403.652344 461.195312 407.855469 455.0625 411.085938 C 442.441406 397.894531 438.039062 382.328125 441.847656 364.382812 C 446.03125 352.410156 454.269531 344.886719 466.566406 341.808594 C 483.152344 339.917969 495.019531 346.507812 502.164062 361.578125 C 506.167969 372.933594 505.542969 384.039062 500.296875 394.894531 C 492.804688 409.765625 481.976562 421.546875 467.808594 430.234375 C 461.375 434.113281 454.429688 436.5 446.980469 437.394531 C 434.394531 438.125 424.292969 433.503906 416.667969 423.539062 C 412.210938 417.523438 409.515625 410.777344 408.582031 403.300781 C 408.203125 393.34375 407.996094 383.378906 407.960938 373.410156 C 407.625 370.167969 405.914062 368.039062 402.832031 367.027344 C 399.644531 366.125 396.433594 366.019531 393.195312 366.71875 C 388.949219 367.363281 384.804688 368.402344 380.757812 369.832031 C 374.871094 372.257812 369.066406 374.855469 363.347656 377.613281 C 351.554688 383.777344 339.636719 389.695312 327.59375 395.363281 C 315.578125 400.636719 303.039062 402.710938 289.972656 401.589844 C 276.058594 399.890625 266.785156 392.472656 262.148438 379.328125 C 260.28125 371.964844 261.421875 365.117188 265.570312 358.777344 C 274.003906 347.832031 285.144531 342.023438 298.992188 341.34375 Z M 298.992188 341.34375 " fill-opacity="0.985" fill-rule="evenodd"/><path fill="#000000" d="M 363.65625 341.34375 C 367.339844 340.875 370.5 341.910156 373.140625 344.457031 C 374.003906 345.355469 374.523438 346.394531 374.695312 347.570312 C 368.226562 350.027344 361.90625 352.832031 355.730469 355.976562 C 354.21875 348.679688 356.859375 343.800781 363.65625 341.34375 Z M 363.65625 341.34375 " fill-opacity="0.954" fill-rule="evenodd"/><g clip-path="url(#d7bac1e473)"><path fill="#000000" d="M 252.976562 393.339844 C 252.976562 390.535156 252.976562 387.734375 252.976562 384.929688 C 253.820312 376.425781 256.671875 368.644531 261.527344 361.578125 C 257.113281 373.945312 259.546875 384.789062 268.832031 394.117188 C 270.765625 395.742188 272.785156 397.246094 274.894531 398.632812 C 280.992188 411.984375 291.304688 417.539062 305.832031 415.289062 C 314.484375 412.640625 320.601562 407.140625 324.171875 398.785156 C 331.613281 395.839844 338.867188 392.464844 345.9375 388.667969 C 345.917969 405.152344 339.390625 418.386719 326.351562 428.363281 C 310.273438 438.816406 293.691406 439.644531 276.605469 430.855469 C 262.636719 422.238281 254.757812 409.730469 252.976562 393.339844 Z M 252.976562 393.339844 " fill-opacity="0.981" fill-rule="evenodd"/></g><path fill="#000000" d="M 375.472656 374.035156 C 375.835938 392.351562 375.886719 410.722656 375.628906 429.144531 C 374.015625 435.324219 370.023438 438.074219 363.65625 437.394531 C 359.355469 436.410156 356.714844 433.761719 355.730469 429.453125 C 355.523438 414.199219 355.523438 398.941406 355.730469 383.6875 C 362.238281 380.246094 368.820312 377.027344 375.472656 374.035156 Z M 375.472656 374.035156 " fill-opacity="0.988" fill-rule="evenodd"/><path fill="#000000" d="M 524.394531 397.074219 C 530.8125 396.679688 534.804688 399.585938 536.363281 405.792969 C 536.664062 409.039062 535.941406 412.046875 534.1875 414.820312 C 527.777344 425.910156 518.398438 433.125 506.050781 436.460938 C 494.210938 438.425781 483.433594 435.882812 473.714844 428.832031 C 479.679688 424.628906 485.066406 419.75 489.882812 414.199219 C 494.550781 416.710938 499.316406 417.074219 504.183594 415.289062 C 510.351562 412.433594 514.859375 407.917969 517.710938 401.746094 C 519.398438 399.371094 521.628906 397.8125 524.394531 397.074219 Z M 524.394531 397.074219 " fill-opacity="0.98" fill-rule="evenodd"/><path fill="#000000" d="M 403.453125 441.910156 C 404.929688 441.835938 406.277344 442.199219 407.496094 443 C 408.269531 444.652344 408.992188 446.3125 409.671875 447.980469 C 414.945312 448.367188 420.230469 448.574219 425.527344 448.601562 C 428.507812 449.726562 429.492188 451.855469 428.480469 454.984375 C 427.925781 456.265625 427.046875 457.25 425.839844 457.945312 C 424.316406 458.414062 422.761719 458.726562 421.175781 458.878906 C 418.011719 461.625 415.578125 464.894531 413.867188 468.683594 C 413.332031 470.773438 414.003906 472.277344 415.890625 473.199219 C 420.039062 473.253906 424.183594 473.40625 428.324219 473.667969 C 426.945312 477.03125 425.597656 480.40625 424.285156 483.785156 C 419.398438 484.066406 414.53125 483.960938 409.671875 483.476562 C 405.414062 481.90625 402.980469 478.84375 402.363281 474.289062 C 401.898438 470.296875 402.832031 466.664062 405.164062 463.390625 C 406.316406 461.859375 407.507812 460.355469 408.738281 458.878906 C 407.378906 458.621094 406.03125 458.671875 404.695312 459.035156 C 404.003906 460.9375 403.226562 462.804688 402.363281 464.636719 C 399.894531 468.242188 396.996094 468.65625 393.660156 465.882812 C 392.734375 464.285156 392.632812 462.625 393.347656 460.902344 C 395.480469 455.078125 397.863281 449.367188 400.5 443.777344 C 401.386719 442.929688 402.371094 442.304688 403.453125 441.910156 Z M 403.453125 441.910156 " fill-opacity="0.97" fill-rule="evenodd"/><g clip-path="url(#4a6457caa5)"><path fill="#000000" d="M 421.796875 516.011719 C 421.070312 516.011719 420.34375 516.011719 419.621094 516.011719 C 416.578125 514.902344 415.488281 512.722656 416.355469 509.472656 C 423.9375 490.03125 431.605469 470.621094 439.363281 451.25 C 441.125 448.652344 443.5625 447.769531 446.667969 448.601562 C 447.84375 449.050781 448.722656 449.832031 449.3125 450.9375 C 452.550781 447.789062 456.332031 446.90625 460.660156 448.292969 C 464.023438 449.898438 466.148438 452.546875 467.03125 456.230469 C 468.867188 466.0625 466.226562 474.414062 459.105469 481.296875 C 456.089844 483.242188 452.773438 484.125 449.15625 483.941406 C 446.710938 483.90625 444.328125 483.542969 442.003906 482.851562 C 441.128906 482.238281 440.300781 481.5625 439.515625 480.828125 C 435.222656 491.300781 430.921875 501.78125 426.613281 512.273438 C 425.480469 514.195312 423.875 515.441406 421.796875 516.011719 Z M 451.019531 457.164062 C 454.867188 456.296875 456.835938 457.804688 456.929688 461.679688 C 456.585938 466.101562 454.824219 469.839844 451.644531 472.886719 C 448.171875 474.519531 445.375 473.792969 443.25 470.710938 C 444.6875 467.109375 446.191406 463.527344 447.757812 459.96875 C 448.640625 458.777344 449.726562 457.84375 451.019531 457.164062 Z M 451.019531 457.164062 " fill-opacity="0.972" fill-rule="evenodd"/></g><path fill="#000000" d="M 499.832031 447.511719 C 504.226562 447.351562 507.59375 449.117188 509.9375 452.804688 C 513.742188 448.527344 518.457031 446.917969 524.082031 447.980469 C 529.570312 449.640625 531.902344 453.324219 531.078125 459.035156 C 529.445312 463.832031 527.632812 468.554688 525.636719 473.199219 C 527.710938 473.304688 529.78125 473.40625 531.855469 473.511719 C 536.039062 473.96875 537.4375 476.199219 536.050781 480.207031 C 534.789062 482.605469 532.765625 483.800781 529.988281 483.785156 C 526.15625 483.992188 522.320312 483.992188 518.488281 483.785156 C 514.191406 483.019531 512.378906 480.476562 513.046875 476.15625 C 514.839844 470.976562 516.757812 465.839844 518.796875 460.746094 C 518.640625 458.929688 517.65625 457.941406 515.84375 457.789062 C 512.300781 458.738281 509.816406 460.917969 508.382812 464.328125 C 506.265625 469.75 504.089844 475.144531 501.851562 480.515625 C 499.550781 484.375 496.390625 485.359375 492.371094 483.476562 C 490.621094 481.449219 490.363281 479.214844 491.59375 476.78125 C 493.808594 471.3125 495.933594 465.8125 497.96875 460.277344 C 496.953125 458.054688 495.296875 457.378906 492.992188 458.253906 C 490.644531 459.570312 488.933594 461.492188 487.863281 464.015625 C 485.894531 468.996094 483.925781 473.976562 481.957031 478.960938 C 480.898438 481.886719 478.878906 483.703125 475.894531 484.410156 C 469.777344 484.617188 463.664062 484.617188 457.550781 484.410156 C 461.476562 481.980469 464.480469 478.714844 466.566406 474.601562 C 468.417969 474.289062 470.285156 474.1875 472.164062 474.289062 C 474.855469 466.871094 477.707031 459.503906 480.710938 452.183594 C 482.269531 448.9375 484.808594 447.746094 488.328125 448.601562 C 489.851562 449.195312 490.835938 450.285156 491.28125 451.871094 C 493.640625 449.371094 496.488281 447.917969 499.832031 447.511719 Z M 499.832031 447.511719 " fill-opacity="0.97" fill-rule="evenodd"/></svg>