<svg width="150" height="150" viewBox="0 0 150 150" fill="none" xmlns="http://www.w3.org/2000/svg">
<path fill-rule="evenodd" clip-rule="evenodd" d="M78.6095 32C75.3373 32 72.6846 34.6294 72.6846 37.873V61.2361C72.6846 64.6971 71.605 68.0731 69.5936 70.9019C66.4228 75.3605 61.2629 78.0132 55.7595 78.0132H40.9249C37.6527 78.0132 35 80.6423 35 83.8862V113.127C35 116.371 37.6527 119 40.9249 119H70.3904C73.6626 119 76.3153 116.371 76.3153 113.127V93.147C76.3153 89.1083 77.5752 85.1694 79.9223 81.8688L80.3367 81.2854C84.0367 76.0819 90.0574 72.9868 96.48 72.9868H108.075C111.348 72.9868 114 70.3577 114 67.1138V37.873C114 34.6294 111.348 32 108.075 32H78.6095Z" fill="white"/>
</svg>
