<svg width="632" height="188" viewBox="0 0 632 188" fill="none" xmlns="http://www.w3.org/2000/svg">
<path d="M167.92 125V43.05H198.39C203.963 43.05 208.877 44.0767 213.13 46.13C217.457 48.11 220.83 51.0433 223.25 54.93C225.67 58.7433 226.88 63.4 226.88 68.9C226.88 74.5467 225.523 79.35 222.81 83.31C220.17 87.27 216.577 90.2033 212.03 92.11L230.84 125H213.9L193.77 89.03L203.45 94.75H182.88V125H167.92ZM182.88 81.55H198.61C201.323 81.55 203.67 81.0367 205.65 80.01C207.63 78.91 209.17 77.4067 210.27 75.5C211.37 73.5933 211.92 71.3933 211.92 68.9C211.92 66.3333 211.37 64.1333 210.27 62.3C209.17 60.3933 207.63 58.9267 205.65 57.9C203.67 56.8 201.323 56.25 198.61 56.25H182.88V81.55ZM262.285 126.32C256.125 126.32 250.735 124.927 246.115 122.14C241.495 119.353 237.901 115.577 235.335 110.81C232.768 106.043 231.485 100.763 231.485 94.97C231.485 88.9567 232.768 83.64 235.335 79.02C237.975 74.3267 241.531 70.6233 246.005 67.91C250.551 65.1967 255.611 63.84 261.185 63.84C265.878 63.84 269.985 64.61 273.505 66.15C277.098 67.69 280.141 69.8167 282.635 72.53C285.128 75.2433 287.035 78.36 288.355 81.88C289.675 85.3267 290.335 89.0667 290.335 93.1C290.335 94.1267 290.261 95.19 290.115 96.29C290.041 97.39 289.858 98.3433 289.565 99.15H243.365V88.15H281.425L274.605 93.32C275.265 89.9467 275.081 86.94 274.055 84.3C273.101 81.66 271.488 79.57 269.215 78.03C267.015 76.49 264.338 75.72 261.185 75.72C258.178 75.72 255.501 76.49 253.155 78.03C250.808 79.4967 249.011 81.6967 247.765 84.63C246.591 87.49 246.151 90.9733 246.445 95.08C246.151 98.7467 246.628 102.01 247.875 104.87C249.195 107.657 251.101 109.82 253.595 111.36C256.161 112.9 259.095 113.67 262.395 113.67C265.695 113.67 268.481 112.973 270.755 111.58C273.101 110.187 274.935 108.317 276.255 105.97L287.915 111.69C286.741 114.55 284.908 117.08 282.415 119.28C279.921 121.48 276.951 123.203 273.505 124.45C270.131 125.697 266.391 126.32 262.285 126.32ZM327.878 126.32C321.938 126.32 316.585 124.963 311.818 122.25C307.125 119.463 303.421 115.723 300.708 111.03C297.995 106.263 296.638 100.91 296.638 94.97C296.638 89.03 297.995 83.7133 300.708 79.02C303.421 74.3267 307.125 70.6233 311.818 67.91C316.585 65.1967 321.938 63.84 327.878 63.84C332.131 63.84 336.091 64.61 339.758 66.15C343.425 67.6167 346.578 69.67 349.218 72.31C351.931 74.8767 353.875 77.9567 355.048 81.55L342.398 87.05C341.298 84.0433 339.428 81.6233 336.788 79.79C334.221 77.9567 331.251 77.04 327.878 77.04C324.725 77.04 321.901 77.81 319.408 79.35C316.988 80.89 315.081 83.0167 313.688 85.73C312.295 88.4433 311.598 91.56 311.598 95.08C311.598 98.6 312.295 101.717 313.688 104.43C315.081 107.143 316.988 109.27 319.408 110.81C321.901 112.35 324.725 113.12 327.878 113.12C331.325 113.12 334.331 112.203 336.898 110.37C339.465 108.537 341.298 106.08 342.398 103L355.048 108.72C353.875 112.093 351.968 115.137 349.328 117.85C346.688 120.49 343.535 122.58 339.868 124.12C336.201 125.587 332.205 126.32 327.878 126.32ZM393.042 126.32C387.175 126.32 381.822 124.963 376.982 122.25C372.215 119.537 368.402 115.833 365.542 111.14C362.755 106.447 361.362 101.093 361.362 95.08C361.362 89.0667 362.755 83.7133 365.542 79.02C368.402 74.3267 372.215 70.6233 376.982 67.91C381.749 65.1967 387.102 63.84 393.042 63.84C398.909 63.84 404.225 65.1967 408.992 67.91C413.759 70.6233 417.535 74.3267 420.322 79.02C423.182 83.64 424.612 88.9933 424.612 95.08C424.612 101.093 423.182 106.447 420.322 111.14C417.462 115.833 413.649 119.537 408.882 122.25C404.115 124.963 398.835 126.32 393.042 126.32ZM393.042 113.12C396.269 113.12 399.092 112.35 401.512 110.81C404.005 109.27 405.949 107.143 407.342 104.43C408.809 101.643 409.542 98.5267 409.542 95.08C409.542 91.56 408.809 88.48 407.342 85.84C405.949 83.1267 404.005 81 401.512 79.46C399.092 77.8467 396.269 77.04 393.042 77.04C389.742 77.04 386.845 77.8467 384.352 79.46C381.859 81 379.879 83.1267 378.412 85.84C377.019 88.48 376.322 91.56 376.322 95.08C376.322 98.5267 377.019 101.643 378.412 104.43C379.879 107.143 381.859 109.27 384.352 110.81C386.845 112.35 389.742 113.12 393.042 113.12ZM454.68 126.32C450.06 126.32 446.026 125.293 442.58 123.24C439.206 121.187 436.603 118.327 434.77 114.66C433.01 110.993 432.13 106.703 432.13 101.79V65.16H446.54V100.58C446.54 103.073 447.016 105.273 447.97 107.18C448.996 109.013 450.426 110.48 452.26 111.58C454.166 112.607 456.293 113.12 458.64 113.12C460.986 113.12 463.076 112.607 464.91 111.58C466.743 110.48 468.173 108.977 469.2 107.07C470.226 105.163 470.74 102.89 470.74 100.25V65.16H485.15V125H471.51V113.23L472.72 115.32C471.326 118.987 469.016 121.737 465.79 123.57C462.636 125.403 458.933 126.32 454.68 126.32ZM496.345 147V65.16H509.875V77.04L508.555 74.07C510.608 70.8433 513.395 68.35 516.915 66.59C520.435 64.7567 524.505 63.84 529.125 63.84C534.771 63.84 539.868 65.2333 544.415 68.02C548.961 70.8067 552.555 74.5467 555.195 79.24C557.908 83.9333 559.265 89.2133 559.265 95.08C559.265 100.873 557.945 106.153 555.305 110.92C552.665 115.687 549.071 119.463 544.525 122.25C539.978 124.963 534.808 126.32 529.015 126.32C524.688 126.32 520.691 125.477 517.025 123.79C513.431 122.03 510.571 119.537 508.445 116.31L510.755 113.45V147H496.345ZM527.365 113.12C530.665 113.12 533.598 112.35 536.165 110.81C538.731 109.27 540.711 107.143 542.105 104.43C543.571 101.717 544.305 98.6 544.305 95.08C544.305 91.56 543.571 88.48 542.105 85.84C540.711 83.1267 538.731 81 536.165 79.46C533.598 77.8467 530.665 77.04 527.365 77.04C524.211 77.04 521.351 77.81 518.785 79.35C516.291 80.89 514.311 83.0533 512.845 85.84C511.451 88.5533 510.755 91.6333 510.755 95.08C510.755 98.6 511.451 101.717 512.845 104.43C514.311 107.143 516.291 109.27 518.785 110.81C521.351 112.35 524.211 113.12 527.365 113.12Z" fill="white"/>
<path fill-rule="evenodd" clip-rule="evenodd" d="M89.6095 39C86.3373 39 83.6846 41.6294 83.6846 44.873V68.2361C83.6846 71.6971 82.605 75.0731 80.5936 77.9019C77.4228 82.3605 72.2629 85.0132 66.7595 85.0132H51.9249C48.6527 85.0132 46 87.6423 46 90.8862V120.127C46 123.371 48.6527 126 51.9249 126H81.3904C84.6626 126 87.3153 123.371 87.3153 120.127V100.147C87.3153 96.1083 88.5752 92.1694 90.9223 88.8688L91.3367 88.2854C95.0367 83.0819 101.057 79.9868 107.48 79.9868H119.075C122.348 79.9868 125 77.3577 125 74.1138V44.873C125 41.6294 122.348 39 119.075 39H89.6095Z" fill="white"/>
</svg>
