<svg width="392" height="104" viewBox="0 0 392 104" fill="none" xmlns="http://www.w3.org/2000/svg">
<path d="M7.86036e-05 81.95V-5.59092e-05H30.4701C36.0434 -5.59092e-05 40.9567 1.02661 45.2101 3.07995C49.5367 5.05995 52.9101 7.99328 55.3301 11.8799C57.7501 15.6933 58.9601 20.3499 58.9601 25.8499C58.9601 31.4966 57.6034 36.2999 54.8901 40.26C52.2501 44.2199 48.6567 47.1533 44.1101 49.0599L62.9201 81.95H45.9801L25.8501 45.9799L35.5301 51.7H14.9601V81.95H7.86036e-05ZM14.9601 38.4999H30.6901C33.4034 38.4999 35.7501 37.9866 37.7301 36.96C39.7101 35.8599 41.2501 34.3566 42.3501 32.4499C43.4501 30.5433 44.0001 28.3433 44.0001 25.8499C44.0001 23.2833 43.4501 21.0833 42.3501 19.2499C41.2501 17.3433 39.7101 15.8766 37.7301 14.8499C35.7501 13.75 33.4034 13.2 30.6901 13.2H14.9601V38.4999ZM94.3646 83.27C88.2046 83.27 82.8146 81.8766 78.1946 79.09C73.5746 76.3033 69.9813 72.5266 67.4146 67.76C64.8479 62.9933 63.5646 57.7133 63.5646 51.92C63.5646 45.9066 64.8479 40.5899 67.4146 35.9699C70.0546 31.2766 73.6113 27.5733 78.0846 24.8599C82.6313 22.1466 87.6913 20.7899 93.2646 20.7899C97.9579 20.7899 102.065 21.5599 105.585 23.0999C109.178 24.64 112.221 26.7666 114.715 29.4799C117.208 32.1933 119.115 35.3099 120.435 38.8299C121.755 42.2766 122.415 46.0166 122.415 50.0499C122.415 51.0766 122.341 52.1399 122.195 53.24C122.121 54.34 121.938 55.2933 121.645 56.0999H75.4446V45.1H113.505L106.685 50.2699C107.345 46.8966 107.161 43.8899 106.135 41.25C105.181 38.6099 103.568 36.5199 101.295 34.9799C99.0946 33.4399 96.4179 32.6699 93.2646 32.6699C90.2579 32.6699 87.5813 33.4399 85.2346 34.9799C82.8879 36.4466 81.0913 38.6466 79.8446 41.5799C78.6713 44.44 78.2313 47.9233 78.5246 52.0299C78.2313 55.6966 78.7079 58.9599 79.9546 61.8199C81.2746 64.6066 83.1813 66.77 85.6746 68.31C88.2413 69.85 91.1746 70.62 94.4746 70.62C97.7746 70.62 100.561 69.9233 102.835 68.53C105.181 67.1366 107.015 65.2666 108.335 62.92L119.995 68.64C118.821 71.5 116.988 74.03 114.495 76.23C112.001 78.43 109.031 80.1533 105.585 81.4C102.211 82.6466 98.4713 83.27 94.3646 83.27ZM159.958 83.27C154.018 83.27 148.665 81.9133 143.898 79.2C139.205 76.4133 135.501 72.6733 132.788 67.98C130.075 63.2133 128.718 57.86 128.718 51.92C128.718 45.98 130.075 40.6633 132.788 35.9699C135.501 31.2766 139.205 27.5733 143.898 24.8599C148.665 22.1466 154.018 20.7899 159.958 20.7899C164.211 20.7899 168.171 21.5599 171.838 23.0999C175.505 24.5666 178.658 26.6199 181.298 29.2599C184.011 31.8266 185.955 34.9066 187.128 38.4999L174.478 43.9999C173.378 40.9933 171.508 38.5733 168.868 36.7399C166.301 34.9066 163.331 33.9899 159.958 33.9899C156.805 33.9899 153.981 34.7599 151.488 36.2999C149.068 37.8399 147.161 39.9666 145.768 42.6799C144.375 45.3933 143.678 48.5099 143.678 52.0299C143.678 55.55 144.375 58.6666 145.768 61.38C147.161 64.0933 149.068 66.22 151.488 67.76C153.981 69.3 156.805 70.07 159.958 70.07C163.405 70.07 166.411 69.1533 168.978 67.32C171.545 65.4866 173.378 63.03 174.478 59.95L187.128 65.67C185.955 69.0433 184.048 72.0866 181.408 74.8C178.768 77.44 175.615 79.53 171.948 81.07C168.281 82.5366 164.285 83.27 159.958 83.27ZM225.122 83.27C219.255 83.27 213.902 81.9133 209.062 79.2C204.295 76.4866 200.482 72.7833 197.622 68.09C194.835 63.3966 193.442 58.0433 193.442 52.0299C193.442 46.0166 194.835 40.6633 197.622 35.9699C200.482 31.2766 204.295 27.5733 209.062 24.8599C213.829 22.1466 219.182 20.7899 225.122 20.7899C230.989 20.7899 236.305 22.1466 241.072 24.8599C245.839 27.5733 249.615 31.2766 252.402 35.9699C255.262 40.5899 256.692 45.9433 256.692 52.0299C256.692 58.0433 255.262 63.3966 252.402 68.09C249.542 72.7833 245.729 76.4866 240.962 79.2C236.195 81.9133 230.915 83.27 225.122 83.27ZM225.122 70.07C228.349 70.07 231.172 69.3 233.592 67.76C236.085 66.22 238.029 64.0933 239.422 61.38C240.889 58.5933 241.622 55.4766 241.622 52.0299C241.622 48.5099 240.889 45.4299 239.422 42.79C238.029 40.0766 236.085 37.9499 233.592 36.4099C231.172 34.7966 228.349 33.9899 225.122 33.9899C221.822 33.9899 218.925 34.7966 216.432 36.4099C213.939 37.9499 211.959 40.0766 210.492 42.79C209.099 45.4299 208.402 48.5099 208.402 52.0299C208.402 55.4766 209.099 58.5933 210.492 61.38C211.959 64.0933 213.939 66.22 216.432 67.76C218.925 69.3 221.822 70.07 225.122 70.07ZM286.76 83.27C282.14 83.27 278.106 82.2433 274.66 80.19C271.286 78.1366 268.683 75.2766 266.85 71.61C265.09 67.9433 264.21 63.6533 264.21 58.74V22.1099H278.62V57.5299C278.62 60.0233 279.096 62.2233 280.05 64.13C281.076 65.9633 282.506 67.43 284.34 68.53C286.246 69.5566 288.373 70.07 290.72 70.07C293.066 70.07 295.156 69.5566 296.99 68.53C298.823 67.43 300.253 65.9266 301.28 64.02C302.306 62.1133 302.82 59.84 302.82 57.2V22.1099H317.23V81.95H303.59V70.18L304.8 72.27C303.406 75.9366 301.096 78.6866 297.87 80.52C294.716 82.3533 291.013 83.27 286.76 83.27ZM328.425 103.95V22.1099H341.955V33.9899L340.635 31.0199C342.688 27.7933 345.475 25.2999 348.995 23.5399C352.515 21.7066 356.585 20.7899 361.205 20.7899C366.852 20.7899 371.948 22.1833 376.495 24.97C381.042 27.7566 384.635 31.4966 387.275 36.19C389.988 40.8833 391.345 46.1633 391.345 52.0299C391.345 57.8233 390.025 63.1033 387.385 67.87C384.745 72.6366 381.152 76.4133 376.605 79.2C372.058 81.9133 366.888 83.27 361.095 83.27C356.768 83.27 352.772 82.4266 349.105 80.74C345.512 78.98 342.652 76.4866 340.525 73.26L342.835 70.4V103.95H328.425ZM359.445 70.07C362.745 70.07 365.678 69.3 368.245 67.76C370.812 66.22 372.792 64.0933 374.185 61.38C375.652 58.6666 376.385 55.55 376.385 52.0299C376.385 48.5099 375.652 45.4299 374.185 42.79C372.792 40.0766 370.812 37.9499 368.245 36.4099C365.678 34.7966 362.745 33.9899 359.445 33.9899C356.292 33.9899 353.432 34.7599 350.865 36.2999C348.372 37.8399 346.392 40.0033 344.925 42.79C343.532 45.5033 342.835 48.5833 342.835 52.0299C342.835 55.55 343.532 58.6666 344.925 61.38C346.392 64.0933 348.372 66.22 350.865 67.76C353.432 69.3 356.292 70.07 359.445 70.07Z" fill="white"/>
</svg>
